<?xml version="1.0" encoding="UTF-8" standalone="no"?>
<svg width="50px" height="79px" viewBox="0 0 50 79" version="1.1" xmlns="http://www.w3.org/2000/svg" xmlns:xlink="http://www.w3.org/1999/xlink" xmlns:sketch="http://www.bohemiancoding.com/sketch/ns">
    <!-- Generator: Sketch 3.4.2 (15855) - http://www.bohemiancoding.com/sketch -->
    <title>Shape</title>
    <desc>Created with Sketch.</desc>
    <defs></defs>
    <g id="Page-1-Paco" stroke="none" stroke-width="1" fill="none" fill-rule="evenodd" sketch:type="MSPage">
        <g id="Shape-+-Rectangle-268" sketch:type="MSLayerGroup" fill-opacity="0.905230978" fill="#6C6D6F">
            <path d="M26.9059804,74.221453 L36.1429901,74.221453 C37.2226405,74.221453 38.1823299,75.184905 38.1823299,76.2687885 C38.1823299,77.352672 37.2226405,78.316124 36.1429901,78.316124 L24.8666406,78.316124 L13.8302136,78.316124 C12.7505631,78.316124 11.7908738,77.352672 11.7908738,76.2687885 C11.7908738,75.184905 12.7505631,74.221453 13.8302136,74.221453 L22.8273009,74.221453 L22.7073397,58.6857895 C10.1114175,57.601906 0.154640856,47.003934 0.154640856,33.9973319 L0.154640856,33.3951744 C0.154640856,32.3112909 1.11433017,31.3478389 2.19398064,31.3478389 C3.27363112,31.3478389 4.23332043,32.3112909 4.23332043,33.3951744 L4.23332043,33.8769004 C4.23332043,45.1974615 13.3503689,54.3502555 24.5067572,54.5911185 L24.7466795,54.5911185 L24.9866018,54.5911185 C36.2629512,54.470687 45.4999609,45.317893 45.4999609,33.8769004 L45.4999609,33.5156059 C45.4999609,32.4317224 46.339689,31.4682704 47.5393006,31.4682704 C48.6189511,31.4682704 49.5786404,32.3112909 49.5786404,33.5156059 L49.5786404,33.8769004 C49.5786404,47.003934 39.5019027,57.7223375 26.7860193,58.6857895 L26.9059804,74.221453 Z M10.3513398,15.4508809 C10.3513398,7.38197038 16.9492038,0.758237861 24.9866018,0.758237861 C33.0239998,0.758237861 39.6218638,7.38197038 39.6218638,15.4508809 L39.6218638,26.7363281 L39.6218638,34.1177634 C39.6218638,42.186674 33.0239998,48.8104065 24.9866018,48.8104065 C16.9492038,48.8104065 10.3513398,42.0662425 10.3513398,33.9973319 L10.3513398,15.4508809 Z" id="Shape" sketch:type="MSShapeGroup"></path>
        </g>
    </g>
</svg>